<svg width="24" height="24" viewBox="0 0 24 24" fill="none" xmlns="http://www.w3.org/2000/svg">
<path d="M19.4375 9.15625C19.2812 9.03125 15.9375 6.34375 15.2188 5.75C14.5312 5.21875 13.3438 4 12 4C10.625 4 9.46875 5.1875 8.75 5.75C8 6.375 4.65625 9.0625 4.53125 9.15625C4.1875 9.4375 4 9.84375 4 10.3125V18.5C4 19.3438 4.65625 20 5.5 20H18.5C19.3125 20 20 19.3438 20 18.5V10.3125C20 9.84375 19.7812 9.4375 19.4375 9.15625ZM18.5 18.3125C18.5 18.4375 18.4062 18.5 18.3125 18.5H5.6875C5.5625 18.5 5.5 18.4375 5.5 18.3125V10.4062C5.5 10.3438 5.5 10.2812 5.5625 10.25C6.0625 9.84375 8.96875 7.53125 9.6875 6.9375C10.25 6.46875 11.25 5.5 12 5.5C12.7188 5.5 13.7188 6.5 14.2812 6.9375C15 7.53125 17.9062 9.84375 18.4062 10.25C18.4688 10.2812 18.5 10.3438 18.5 10.4062V18.3125ZM17.5 12.4688L17 11.875C16.875 11.7188 16.6562 11.6875 16.4688 11.8438C15.5938 12.5625 14.6562 13.3125 14.2812 13.5938C13.7188 14.0625 12.7188 15 12 15C11.25 15 10.25 14.0312 9.6875 13.5938C9.3125 13.3125 8.375 12.5625 7.5 11.8438C7.3125 11.6875 7.09375 11.7188 6.96875 11.875L6.46875 12.4688C6.34375 12.625 6.375 12.875 6.53125 13C7.4375 13.7188 8.40625 14.5 8.75 14.7812C9.4375 15.3125 10.625 16.5 12 16.5C13.3438 16.5 14.5 15.3438 15.2188 14.7812C15.5625 14.4688 16.5312 13.7188 17.4375 13C17.5938 12.875 17.625 12.625 17.5 12.4688Z" fill="#323232"/>
</svg>
