<svg width="24" height="24" viewBox="0 0 24 24" fill="none" xmlns="http://www.w3.org/2000/svg">
<path d="M15.5625 14.7812C15.5 14.8438 15.5 14.9062 15.5 14.9688V18.5H4.5V7.5H12.0312C12.0938 7.5 12.1562 7.5 12.2188 7.4375L13.2188 6.4375C13.375 6.28125 13.25 6 13.0312 6H4.5C3.65625 6 3 6.6875 3 7.5V18.5C3 19.3438 3.65625 20 4.5 20H15.5C16.3125 20 17 19.3438 17 18.5V13.9688C17 13.75 16.7188 13.625 16.5625 13.7812L15.5625 14.7812ZM20.4375 8.5C21.1562 7.78125 21.1562 6.625 20.4375 5.90625L19.0938 4.5625C18.375 3.84375 17.2188 3.84375 16.5 4.5625L8.3125 12.75L8 15.5938C7.90625 16.4062 8.59375 17.0938 9.40625 17L12.25 16.6875L20.4375 8.5ZM17.375 9.4375L11.5625 15.25L9.5 15.5L9.75 13.4375L15.5625 7.625L17.375 9.4375ZM19.375 6.96875C19.5312 7.09375 19.5312 7.28125 19.4062 7.4375L18.4375 8.40625L16.625 6.5625L17.5625 5.625C17.6875 5.46875 17.9062 5.46875 18.0312 5.625L19.375 6.96875Z" fill="#323232"/>
</svg>
