<svg width="17" height="17" viewBox="0 0 17 17" fill="none" xmlns="http://www.w3.org/2000/svg">
<path d="M14.75 0.21875L1.75 7.71875C0.65625 8.34375 0.75 9.9375 1.90625 10.4062L5.5 11.875V14.5C5.5 15.9688 7.34375 16.5625 8.1875 15.4062L9.5625 13.5625L13.0625 15C13.25 15.0938 13.4375 15.125 13.625 15.125C13.875 15.125 14.125 15.0625 14.375 14.9375C14.7812 14.6875 15.0312 14.3125 15.125 13.8438L16.9688 1.75C17.1562 0.5 15.8125 -0.40625 14.75 0.21875ZM7 14.5V12.5L8.125 12.9688L7 14.5ZM13.625 13.625L8.8125 11.625L13.2188 5.3125C13.5312 4.8125 12.9062 4.25 12.4688 4.65625L5.84375 10.4062L2.5 9L15.5 1.5L13.625 13.625Z" fill="#F2F2F2"/>
</svg>
